<svg width="1400" height="1036" viewBox="0 0 1400 1036" fill="none" xmlns="http://www.w3.org/2000/svg">
<path d="M1034.56 459.32C1030.4 451.637 1026.15 444.047 1021.99 436.364C978.744 501.9 920.311 553.736 858.589 603.721C886.064 591.04 911.12 575.304 933.662 556.791C957.073 537.445 978.067 515.322 1002.16 492.551C1008.25 517.358 1012.99 536.704 1017.83 556.513C1023.54 522.912 1029.05 491.162 1034.56 459.32ZM681.646 388.785C673.81 402.67 665.877 416.555 658.427 429.792C692.288 444.695 722.955 458.117 753.526 471.631C754.106 470.243 754.687 468.854 755.267 467.466C730.501 441.362 705.638 415.352 680.872 389.248C694.416 377.863 707.96 366.292 721.601 355.092C734.564 344.447 747.818 334.172 760.878 323.805C693.062 364.07 629.598 407.576 542.239 369.439C466.683 336.394 404.187 294.462 375.551 221.058C477.421 212.819 575.809 204.859 674.1 196.898C673.81 193.195 673.423 189.585 673.132 185.883C655.041 187.271 637.047 188.937 618.956 189.863C565.457 192.733 512.055 196.065 458.46 197.639C436.015 198.287 413.281 195.602 390.836 193.195C367.328 190.696 358.04 201.063 362.877 221.613C367.618 242.07 375.454 261.971 382.323 283.354C359.685 292.795 337.821 301.867 315.957 311.031C327.566 312.327 337.724 309.55 346.818 305.014C374.1 291.314 394.319 293.721 419.956 315.381C479.163 365.459 544.658 407.113 630.759 395.913C647.786 393.691 664.716 391.099 681.646 388.785ZM1246.82 723.315C1248.75 721.557 1250.59 719.798 1252.53 718.039C1268.2 690.917 1283.97 663.796 1299.64 636.582C1295.77 634.453 1292 632.231 1288.13 630.102C1281.36 638.618 1274.39 647.134 1267.81 655.743C1244.5 686.474 1200.48 687.307 1177.55 657.039C1168.07 644.542 1159.75 631.306 1150.85 618.439C1102.96 548.923 1094.55 474.963 1117.96 395.08C1134.6 338.337 1174.84 298.442 1216.73 260.953C1270.04 213.375 1302.35 222.631 1333.89 286.871C1336.98 293.258 1342.01 298.72 1348.11 307.328C1360.2 221.613 1379.55 141.637 1358.56 58.791C1347.63 15.4706 1324.79 -4.80114 1277.58 2.14123C1258.52 4.91818 1239.18 7.23231 1220.02 7.23231C1138.08 6.95461 1056.14 2.97432 974.294 5.28844C851.527 8.80591 738.241 40.5557 654.074 111.831C651.752 133.954 650.398 147.098 649.43 156.262C677.776 127.937 702.736 89.3375 738.918 69.436C856.461 4.82562 986.87 6.21409 1118.44 13.7119C1116.7 23.0609 1115.54 29.8182 1113.89 38.6119C1141.47 9.82413 1141.85 9.73156 1162.17 19.8212C1146.69 44.3509 1131.02 69.1583 1115.35 93.9657C1139.43 74.4345 1156.65 51.0156 1177.07 30.5587C1198.64 8.80592 1226.5 12.3234 1250.01 32.0397C1263.17 43.1475 1280.68 54.6256 1297.13 55.9215C1345.21 59.9018 1355.17 92.4847 1361.27 127.659C1362.62 135.342 1352.95 148.764 1344.63 153.115C1316.96 167.647 1287.16 178.385 1258.91 192.085C1194.67 223.279 1150.85 274.282 1122.6 335.56C1058.85 473.76 1066.49 607.424 1159.36 733.312C1174.55 753.862 1187.52 775.892 1203.57 800.237C1216.93 776.818 1231.92 750.067 1246.82 723.315ZM9.86177 455.617C7.34645 453.396 4.92787 451.174 2.41255 448.953C-9.97057 459.505 -20.709 473.205 -35.027 480.054C-79.3354 501.159 -85.2367 537.167 -69.9513 574.008C-55.2463 609.46 -37.2521 649.078 -8.03571 672.312C39.9489 710.449 94.899 744.79 152.751 766.543C275.712 812.641 399.93 855.035 512.345 922.978C513.41 923.626 516.022 921.96 520.665 920.571C514.667 916.036 510.314 911.593 505.09 908.908C431.275 871.234 358.04 832.635 283.451 796.627C228.017 769.968 168.424 750.9 115.118 721.094C72.5513 697.305 33.1769 665.647 -1.26367 631.583C-47.4101 585.949 -46.5394 534.945 -7.84221 482.831C-1.26367 474.223 4.05719 464.689 9.86177 455.617ZM-106.423 523.745C-160.987 567.251 -160.696 575.489 -133.705 626.307C-96.6524 696.009 -34.5433 739.236 34.241 773.115C96.8338 803.939 164.651 824.952 228.888 852.999C302.993 885.304 375.647 920.479 448.979 954.45C460.007 959.541 470.939 964.91 481.968 970.094C483.516 967.779 484.967 965.465 486.515 963.151C469.972 951.21 454.977 936.4 436.789 927.884C352.816 888.636 267.779 851.425 183.322 813.103C127.405 787.648 69.8425 764.877 16.7305 734.793C-63.0825 689.529 -127.804 632.416 -106.423 523.745ZM-178.884 601.963C-184.011 602.611 -189.236 603.258 -194.363 603.906C-192.428 625.011 -198.523 652.318 -187.01 666.203C-149.474 711.745 -115.421 762.841 -58.6323 789.684C-1.16693 816.806 57.7496 841.243 116.666 865.217C186.708 893.727 257.718 920.016 327.76 948.526C369.262 965.373 409.701 984.719 450.527 1002.86C407.863 972.685 363.555 945.656 316.15 925.107C203.832 876.418 89.6748 830.876 -23.3211 783.205C-39.7674 776.262 -56.3105 766.728 -69.0806 754.787C-115.808 711.004 -164.566 668.239 -178.884 601.963ZM423.632 1036C421.794 1034.33 418.118 1029.06 413.087 1026.84C333.274 991.569 253.558 956.209 173.358 921.682C96.3501 888.544 17.1175 859.849 -57.3747 822.36C-98.0068 801.996 -131.48 768.117 -167.081 739.051C-184.205 725.074 -198.716 708.135 -214.485 692.491C-217.871 694.25 -221.257 696.009 -224.74 697.675C-219.71 712.763 -218.258 730.258 -209.068 742.569C-165.437 801.255 -98.7807 833.19 -34.7368 863.736C38.6912 898.726 118.214 921.867 194.931 950.47C271.649 978.887 348.076 1007.68 423.632 1036ZM726.631 243.829C637.047 232.628 560.233 242.81 526.567 272.431C577.163 258.824 624.858 246.698 680.485 257.528C651.559 282.15 627.663 302.422 599.995 326.026C615.28 328.248 627.083 333.431 631.533 330.007C646.528 318.251 659.008 303.533 677.292 285.02C674.197 305.107 672.068 318.806 669.94 332.506C672.068 332.969 674.197 333.431 676.325 333.894C692.771 304.459 709.121 275.115 726.631 243.829ZM535.08 863.366C590.32 813.196 646.818 761.915 693.932 719.15C625.341 758.212 545.819 803.384 466.392 848.648C467.36 850.314 468.327 852.073 469.295 853.739C496.77 842.817 524.245 831.894 556.46 819.12C547.173 838.281 540.594 851.981 535.08 863.366ZM704.09 509.12C667.328 510.138 597.866 554.847 497.35 647.042C498.898 649.078 500.446 651.115 501.994 653.151C571.165 603.906 640.24 554.662 704.09 509.12ZM560.427 908.723C563.426 911.037 566.425 913.259 569.424 915.573C623.019 859.571 676.518 803.662 730.114 747.66C727.599 745.531 725.083 743.309 722.568 741.18C668.586 796.997 614.506 852.906 560.427 908.723ZM967.135 97.946C995.094 70.5468 1024.89 77.7669 1049.75 89.3375C1061.65 72.5832 1072 58.0505 1082.36 43.5178C1049.37 72.4906 986.29 38.797 967.135 97.946ZM1061.75 526.244C1030.02 544.85 1044.24 629.639 1088.16 675.552C1079.94 648.06 1070.65 625.011 1066.39 601.129C1062.23 577.433 1063.2 552.903 1061.75 526.244ZM849.592 236.331C911.024 227.352 946.432 194.491 973.81 148.116C933.275 176.997 894.287 204.674 849.592 236.331ZM578.421 436.549C583.065 498.012 547.173 541.795 506.831 585.856C563.039 562.437 591.191 503.566 578.421 436.549ZM837.596 498.382C877.647 523.282 928.438 517.728 964.91 482.183C922.633 487.552 877.067 493.384 837.596 498.382ZM1008.15 295.295C1061.75 296.128 1061.75 296.128 1061.65 227.907C1043.17 251.141 1027.41 271.043 1008.15 295.295ZM1149.3 836.615C1146.59 838.559 1143.69 840.503 1141.08 842.539C1097.06 876.696 1049.27 866.328 1028.76 816.621C1019.18 793.294 1014.15 768.117 1007.09 743.865C1010.48 778.854 1017.34 813.566 1033.69 843.557C1040.76 856.516 1066.68 864.384 1084.97 866.236C1110.12 868.735 1135.56 862.441 1149.3 836.615ZM1084.29 327.507C1111.09 291.407 1137.89 255.307 1164.39 219.762C1117.28 240.404 1096.87 281.132 1084.29 327.507ZM1128.31 760.619C1105.48 734.979 1082.74 709.245 1054.59 677.496C1067.36 722.112 1086.03 751.548 1128.31 760.619ZM654.364 566.695C697.899 550.404 736.983 535.779 773.939 521.986C731.662 523.745 688.998 530.595 654.364 566.695ZM293.9 325.471C292.835 323.712 291.674 321.861 290.61 320.102C253.267 338.523 216.021 356.943 178.678 375.363C179.936 377.77 181.291 380.177 182.548 382.583C219.698 363.515 256.847 344.447 293.9 325.471ZM1192.55 44.536C1156.94 62.3085 1147.08 91.6516 1142.82 129.418C1160.62 99.0568 1176 72.8609 1192.55 44.536ZM880.646 113.867C880.066 111.275 879.485 108.776 878.905 106.184C853.268 115.811 827.631 125.345 802.091 134.972C803.252 137.934 804.51 140.804 805.671 143.766C830.63 133.769 855.59 123.772 880.646 113.867ZM1019.86 46.0171C1019.86 44.7211 1019.86 43.3327 1019.76 42.0368C983.001 42.0368 946.141 42.0368 909.379 42.0368C909.379 43.3327 909.379 44.7211 909.379 46.0171C946.141 46.0171 983 46.0171 1019.86 46.0171Z" fill="black"/>
<path d="M1246.82 723.317C1231.82 750.068 1216.92 776.727 1203.47 800.701C1187.42 776.264 1174.45 754.234 1159.26 733.777C1066.29 607.888 1058.75 474.224 1122.5 336.025C1150.75 274.747 1194.57 223.743 1258.81 192.549C1286.96 178.849 1316.86 168.112 1344.53 153.579C1352.85 149.229 1362.52 135.807 1361.17 128.124C1355.07 92.9491 1345.11 60.3662 1297.03 56.3859C1280.58 54.9974 1262.97 43.6119 1249.91 32.5041C1226.4 12.6952 1198.64 9.27027 1176.97 31.0231C1156.55 51.5725 1139.43 74.8989 1115.24 94.4301C1130.92 69.6227 1146.59 44.8152 1162.07 20.2855C1141.75 10.1959 1141.37 10.2885 1113.79 39.0762C1115.44 30.19 1116.7 23.5253 1118.34 14.1762C986.673 6.58589 856.264 5.28997 738.817 69.9004C702.636 89.8018 677.676 128.401 649.33 156.726C650.298 147.562 651.652 134.326 653.974 112.295C738.044 41.0201 851.426 9.27027 974.193 5.7528C1056.04 3.43867 1137.98 7.32641 1219.92 7.69666C1239.08 7.78923 1258.42 5.4751 1277.48 2.60559C1324.69 -4.33679 1347.52 15.935 1358.46 59.2554C1379.35 142.009 1360.1 221.985 1348.01 307.793C1341.91 299.184 1336.98 293.63 1333.79 287.336C1302.25 223.003 1269.94 213.839 1216.63 261.417C1174.65 298.814 1134.5 338.709 1117.86 395.544C1094.45 475.52 1102.86 549.48 1150.75 618.904C1159.65 631.77 1167.97 645.007 1177.45 657.503C1200.38 687.772 1244.4 686.846 1267.71 656.207C1274.29 647.506 1281.26 639.083 1288.03 630.567C1291.9 632.696 1295.67 634.917 1299.54 637.046C1283.87 664.168 1268.1 691.289 1252.43 718.504C1253.01 711.098 1253.59 703.693 1254.17 695.825C1232.88 696.936 1214.7 697.862 1196.51 698.787C1195.83 702.397 1195.15 705.915 1194.48 709.525C1211.99 713.875 1229.4 718.596 1246.82 723.317Z" fill="black"/>
<path d="M9.85957 455.617C4.05498 464.781 -1.26588 474.222 -7.74767 482.923C-46.5417 535.038 -47.4123 586.041 -1.16914 631.675C33.2714 665.739 72.6458 697.304 115.213 721.186C168.422 750.992 228.112 770.06 283.449 796.719C358.135 832.634 431.369 871.326 505.088 909.093C510.312 911.777 514.665 916.22 520.663 920.756C516.02 922.145 513.407 923.811 512.343 923.163C399.928 855.127 275.71 812.825 152.749 766.728C94.8968 745.068 39.9467 710.633 -8.03791 672.497C-37.2543 649.263 -55.2485 609.645 -69.9535 574.193C-85.2389 537.352 -79.3376 501.344 -35.0292 480.239C-20.7112 473.389 -9.97278 459.69 2.41034 449.137C4.82892 451.174 7.34425 453.395 9.85957 455.617Z" fill="url(#paint0_linear_1_56756)"/>
<path d="M-106.419 523.746C-127.896 632.417 -63.0782 689.53 16.6381 734.794C69.6534 764.878 127.312 787.649 183.23 813.104C267.686 851.518 352.627 888.73 436.697 927.885C454.981 936.401 469.976 951.211 486.423 963.152C484.875 965.466 483.424 967.78 481.876 970.094C470.847 964.911 459.915 959.542 448.886 954.451C375.555 920.479 302.901 885.305 228.796 852.999C164.558 824.952 96.7414 803.94 34.1486 773.116C-34.6357 739.237 -96.7448 696.009 -133.797 626.308C-160.692 575.489 -160.982 567.251 -106.419 523.746Z" fill="url(#paint1_linear_1_56756)"/>
<path d="M-178.88 601.965C-164.562 668.149 -115.803 711.006 -69.1729 754.697C-56.4028 766.638 -39.8597 776.172 -23.4134 783.115C89.6793 830.878 203.836 876.42 316.252 925.202C363.656 945.751 407.964 972.78 450.628 1002.96C409.706 984.721 369.267 965.468 327.861 948.621C257.819 920.111 186.809 893.915 116.767 865.312C57.7541 841.245 -1.16246 816.901 -58.5311 789.779C-115.223 762.935 -149.373 711.84 -186.909 666.298C-198.422 652.32 -192.327 625.106 -194.262 604.001C-189.134 603.353 -184.007 602.613 -178.88 601.965Z" fill="url(#paint2_linear_1_56756)"/>
<path d="M423.629 1036C348.169 1007.77 271.646 978.887 195.025 950.47C118.211 921.96 38.6882 898.818 -34.6431 863.736C-98.687 833.19 -165.343 801.255 -208.974 742.569C-218.068 730.257 -219.616 712.763 -224.646 697.675C-221.164 696.008 -217.778 694.25 -214.295 692.583C-198.623 708.227 -184.014 725.166 -166.891 739.144C-131.289 768.209 -97.8163 801.995 -57.1842 822.452C17.308 859.849 96.5406 888.636 173.451 921.682C253.651 956.209 333.368 991.476 413.181 1026.84C418.115 1029.06 421.791 1034.33 423.629 1036Z" fill="url(#paint3_linear_1_56756)"/>
<path d="M681.647 388.691C664.717 391.097 647.787 393.689 630.76 395.911C544.755 407.111 479.26 365.457 419.957 315.379C394.32 293.719 374.197 291.312 346.819 305.012C337.725 309.547 304.546 321.766 292.84 320.47C314.704 311.399 359.686 292.793 382.324 283.352C375.455 261.969 367.716 242.068 362.878 221.611C358.041 200.969 367.329 190.694 390.837 193.193C413.282 195.6 435.92 198.284 458.461 197.636C511.96 196.063 565.458 192.73 618.957 189.861C637.048 188.935 655.043 187.177 673.134 185.881C673.424 189.583 673.811 193.193 674.101 196.896C575.81 204.856 477.422 212.817 375.552 221.055C404.188 294.459 466.684 336.391 542.24 369.437C629.502 407.574 693.063 364.068 760.88 323.802C747.722 334.262 734.565 344.537 721.602 355.089C707.864 366.29 694.417 377.86 680.873 389.246L681.647 388.691Z" fill="black"/>
<path d="M726.622 243.828C709.112 275.115 692.762 304.458 676.316 333.894C674.188 333.431 672.059 332.968 669.931 332.505C672.059 318.805 674.188 305.106 677.283 285.019C659.096 303.44 646.616 318.25 631.524 330.006C627.074 333.431 615.271 328.247 599.986 326.026C627.654 302.421 651.55 282.15 680.476 257.527C624.849 246.697 577.154 258.823 526.558 272.43C560.224 242.81 637.038 232.627 726.622 243.828Z" fill="black"/>
<path d="M535.067 863.367C540.581 851.981 547.159 838.282 556.35 819.121C524.135 831.895 496.66 842.817 469.185 853.74C468.217 852.074 467.25 850.315 466.282 848.649C545.708 803.385 625.231 758.213 693.822 719.15C646.805 761.823 590.307 813.104 535.067 863.367Z" fill="black"/>
<path d="M1034.57 459.32C1029.05 491.162 1023.54 522.912 1017.73 556.513C1012.9 536.797 1008.16 517.451 1002.06 492.551C977.972 515.322 957.075 537.445 933.567 556.791C911.122 575.396 886.066 591.132 858.494 603.721C920.216 553.736 978.552 501.9 1021.8 436.364C1016.96 458.024 1012.22 479.592 1007.38 501.159C1009.99 501.53 1012.61 501.992 1015.22 502.363C1021.7 488.015 1028.08 473.667 1034.57 459.32Z" fill="black"/>
<path d="M704.097 509.118C640.247 554.66 571.076 603.904 502.001 653.149C500.453 651.112 498.905 649.076 497.357 647.04C597.874 554.845 667.335 510.136 704.097 509.118Z" fill="black"/>
<path d="M680.88 389.339C705.646 415.442 730.509 441.453 755.275 467.556C754.695 468.945 754.114 470.333 753.534 471.722C722.866 458.3 692.296 444.785 658.436 429.882C665.982 416.646 673.818 402.761 681.751 388.783C681.654 388.691 680.88 389.339 680.88 389.339Z" fill="black"/>
<path d="M560.423 908.72C614.502 852.903 668.582 796.994 722.564 741.177C725.08 743.306 727.595 745.528 730.11 747.657C676.515 803.659 623.016 859.568 569.42 915.57C566.421 913.256 563.422 911.034 560.423 908.72Z" fill="black"/>
<path d="M21.9695 445.436C96.2903 413.03 228.294 348.283 302.52 315.842C304.2 318.744 315.354 312.944 317.034 315.846C243.121 348.601 100.718 421.937 26.8045 454.692C24.7167 451.441 24.0573 448.686 21.9695 445.436Z" fill="black"/>
<path d="M967.14 97.9468C986.295 38.7977 1049.47 72.4914 1082.36 43.5186C1072.01 58.0513 1061.66 72.584 1049.76 89.3382C1024.9 77.7676 995.098 70.6401 967.14 97.9468Z" fill="black"/>
<path d="M1061.74 526.246C1063.19 552.905 1062.22 577.434 1066.38 601.131C1070.54 625.013 1079.83 648.061 1088.15 675.553C1044.23 629.734 1030.01 544.944 1061.74 526.246Z" fill="black"/>
<path d="M849.596 236.33C894.291 204.58 933.278 176.996 973.814 148.116C946.436 194.491 911.028 227.351 849.596 236.33Z" fill="black"/>
<path d="M578.43 436.549C591.2 503.566 563.048 562.53 506.84 585.856C547.182 541.795 583.073 498.012 578.43 436.549Z" fill="black"/>
<path d="M837.592 498.383C877.16 493.385 922.629 487.553 964.906 482.185C928.337 517.822 877.547 523.283 837.592 498.383Z" fill="black"/>
<path d="M1008.15 295.298C1027.4 271.045 1043.17 251.144 1061.65 227.91C1061.75 296.131 1061.75 296.131 1008.15 295.298Z" fill="black"/>
<path d="M1149.29 836.616C1135.56 862.349 1110.02 868.736 1084.96 866.237C1066.67 864.386 1040.65 856.518 1033.69 843.559C1017.34 813.475 1010.47 778.763 1007.08 743.866C1014.14 768.211 1019.17 793.296 1028.75 816.622C1049.26 866.422 1097.05 876.697 1141.07 842.54C1143.78 840.504 1146.58 838.653 1149.29 836.616Z" fill="black"/>
<path d="M1084.29 327.505C1096.87 281.13 1117.28 240.309 1164.39 219.759C1137.98 255.397 1111.09 291.497 1084.29 327.505Z" fill="black"/>
<path d="M1128.32 760.619C1086.04 751.547 1067.27 722.019 1054.6 677.495C1082.75 709.245 1105.58 734.978 1128.32 760.619Z" fill="black"/>
<path d="M654.372 566.694C689.103 530.594 731.767 523.744 773.947 521.985C736.991 535.778 697.906 550.403 654.372 566.694Z" fill="black"/>
<path d="M1246.83 723.314C1229.42 718.593 1212 713.872 1194.59 709.059C1195.27 705.449 1195.94 701.931 1196.62 698.321C1214.81 697.396 1233 696.47 1254.28 695.359C1253.7 703.227 1253.12 710.633 1252.54 718.038C1250.7 719.889 1248.76 721.648 1246.83 723.314Z" fill="black"/>
<path d="M1034.56 459.317C1028.18 473.665 1021.69 488.105 1015.31 502.453C1012.7 502.082 1010.09 501.62 1007.47 501.249C1012.21 479.682 1016.95 458.022 1021.89 436.454C1026.15 444.044 1030.3 451.635 1034.56 459.317Z" fill="black"/>
<path d="M293.89 325.468C256.741 344.536 218.719 361.569 181.569 380.637C180.312 378.23 179.927 377.767 178.669 375.36C216.012 356.94 253.258 338.52 290.601 320.099C291.762 321.858 292.826 323.709 293.89 325.468Z" fill="black"/>
<path d="M1192.54 44.5347C1176 72.8596 1160.62 99.0555 1142.82 129.417C1147.07 91.6503 1156.94 62.3072 1192.54 44.5347Z" fill="black"/>
<path d="M880.647 113.868C855.688 123.865 830.631 133.769 805.671 143.766C804.51 140.804 803.253 137.935 802.092 134.973C827.729 125.346 853.366 115.812 878.906 106.185C879.486 108.777 880.067 111.276 880.647 113.868Z" fill="black"/>
<path d="M1019.86 46.015C983.006 46.015 946.243 46.015 909.384 46.015C909.384 44.7191 909.384 43.3306 909.384 42.0347C946.147 42.0347 983.006 42.0347 1019.77 42.0347C1019.77 43.3306 1019.77 44.6265 1019.86 46.015Z" fill="black"/>
<path d="M1359.5 174.773L1347.01 270.224L1301.68 203.128L1359.5 174.773Z" fill="#CE2B32"/>
<path d="M1342.48 19.6369C1360.13 54.0478 1363.73 68.6434 1366.67 102.944C1349.19 70.1659 1342.49 61.2895 1298.95 52.0317C1311.44 32.9468 1320.54 25.2898 1342.48 19.6369Z" fill="#CE2B32"/>
<path d="M1047.37 65.8744C1053.69 74.9126 1051.38 80.0218 1047.43 89.0594C1029.91 79.4387 1011.64 82.9807 984.553 84.4299C1005.13 75.7366 1021.01 65.5172 1047.37 65.8744Z" fill="#CE2B32"/>
<path d="M1114.72 512.118C1124.4 521.792 1196.95 778.162 1288.86 623.373C1292.53 623.672 1293.72 624.867 1293.7 628.21C1221.14 773.324 1138.91 637.884 1105.05 531.467C1105.05 531.467 1102.58 507.811 1114.72 512.118Z" fill="#CE2B32"/>
<defs>
<linearGradient id="paint0_linear_1_56756" x1="520.184" y1="926.774" x2="147.156" y2="605.136" gradientUnits="userSpaceOnUse">
<stop offset="0.17658" stop-color="#209FC8"/>
<stop offset="1" stop-color="white"/>
</linearGradient>
<linearGradient id="paint1_linear_1_56756" x1="-147.341" y1="570.399" x2="473.799" y2="998.265" gradientUnits="userSpaceOnUse">
<stop offset="0.173929" stop-color="white"/>
<stop offset="1" stop-color="#289CC2"/>
</linearGradient>
<linearGradient id="paint2_linear_1_56756" x1="-195.717" y1="630.566" x2="423.279" y2="1010.83" gradientUnits="userSpaceOnUse">
<stop offset="0.129301" stop-color="white"/>
<stop offset="1" stop-color="#2693B5"/>
</linearGradient>
<linearGradient id="paint3_linear_1_56756" x1="-224.741" y1="727.759" x2="426.349" y2="1060.55" gradientUnits="userSpaceOnUse">
<stop stop-color="white"/>
<stop offset="1" stop-color="#1F90B1"/>
</linearGradient>
</defs>
</svg>
